Coordinates
version=1
nRows=17
nColumns=40
inDegrees=yes

Units are S.I. units (second, meters, Newtons, ...)
Angles are in degrees.

endheader
time	pelvis_tilt	pelvis_list	pelvis_rotation	pelvis_tx	pelvis_ty	pelvis_tz	hip_flexion_r	hip_adduction_r	hip_rotation_r	knee_angle_r	knee_angle_r_beta	ankle_angle_r	subtalar_angle_r	mtp_angle_r	hip_flexion_l	hip_adduction_l	hip_rotation_l	knee_angle_l	knee_angle_l_beta	ankle_angle_l	subtalar_angle_l	mtp_angle_l	lumbar_extension	lumbar_bending	lumbar_rotation	arm_flex_r	arm_add_r	arm_rot_r	elbow_flex_r	pro_sup_r	wrist_flex_r	wrist_dev_r	arm_flex_l	arm_add_l	arm_rot_l	elbow_flex_l	pro_sup_l	wrist_flex_l	wrist_dev_l
      2.02000000	     -0.34908940	     -0.58298995	      6.88887040	      0.53120577	      0.96558589	      1.54269702	      7.90868660	     -0.03391308	    -20.86334931	    -16.27277490	     -0.28401350	      3.24681778	     -3.93132318	     -4.87079657	     16.66892178	      8.96851145	     11.39523346	    -48.43397844	     -0.84533239	      8.81498163	     17.31096356	     13.36189480	     -5.29308505	      1.57000862	      0.17967860	      3.16047138	    -11.69984112	    -21.48120123	     17.09910302	     89.95437384	      0.00000000	      0.00000000	     -3.06897388	      9.79736265	     -0.51612309	     15.13494512	     89.95437384	      0.00000000	      0.00000000
      2.03000000	     -0.61291512	     -0.58873523	      6.83222235	      0.53807488	      0.96560842	      1.54398165	      7.62475478	      0.11039221	    -21.12818647	    -16.02722728	     -0.27972789	      3.62615171	     -3.95049388	     -4.90720243	     17.69474085	      8.84610155	     12.05013640	    -46.89783850	     -0.81852169	      8.84818687	     17.15328959	     13.26714821	     -5.05077640	      1.45959089	      0.72086140	      3.59375266	    -11.91268877	    -21.22206858	     17.34076570	     89.95437384	      0.00000000	      0.00000000	     -3.54810895	      9.83913990	     -0.49048935	     15.02850752	     89.95437384	      0.00000000	      0.00000000
      2.04000000	     -0.25840348	      0.26275076	      6.12518873	      0.54539915	      0.96694741	      1.54557018	      6.57034308	     -0.56268936	    -20.44316498	    -15.81501227	     -0.27602404	      4.06703416	     -3.31479068	     -5.31231632	     17.24814213	      7.95828601	     13.68647004	    -44.33101101	     -0.77372210	      8.33770408	     16.83196838	     13.11624518	     -5.63932906	      0.46568783	      1.65564897	      4.08015169	    -12.18347306	    -19.73119679	     17.77156663	     89.95437384	      0.00000000	      0.00000000	     -4.02028648	      9.92342393	      0.13666304	     14.94047550	     89.95437384	      0.00000000	      0.00000000
      2.05000000	     -0.51231768	      0.54758886	      5.76198675	      0.55218010	      0.96694811	      1.54689133	      6.31154994	     -0.73616014	    -20.23538742	    -15.64646565	     -0.27308234	      4.34915962	     -3.04734160	     -5.47764410	     17.88547962	      7.51695184	     14.62857847	    -42.17825630	     -0.73614945	      8.11751151	     16.27849512	     12.95962367	     -5.46187398	      0.03972095	      2.39042741	      4.54632579	    -12.41128479	    -19.11081880	     18.05577498	     89.95437384	      0.00000000	      0.00000000	     -4.45084138	      9.96891171	      0.44939262	     14.71417185	     89.95437384	      0.00000000	      0.00000000
      2.06000000	     -0.40079089	      1.04925382	      5.29755690	      0.55926989	      0.96747096	      1.54803375	      5.66913879	     -1.15720402	    -19.98795527	    -15.61808467	     -0.27258700	      4.79326338	     -2.73828130	     -5.86471142	     17.90260773	      6.89456338	     15.89079359	    -39.72014303	     -0.69324728	      7.66074760	     16.01090314	     12.77577537	     -5.68965636	     -0.57771322	      3.11454065	      5.04583282	    -12.71344351	    -17.91899645	     18.40924836	     89.95437384	      0.00000000	      0.00000000	     -4.88584758	      9.98651996	      1.39717203	     14.53740098	     89.95437384	      0.00000000	      0.00000000
      2.07000000	     -0.36843144	      1.35382722	      4.98634700	      0.56628040	      0.96768264	      1.54894366	      5.12324664	     -1.40542397	    -19.91278897	    -15.56754655	     -0.27170494	      5.09177426	     -2.33275919	     -6.34007480	     18.07048523	      6.41746368	     16.81371161	    -37.25924855	     -0.65029656	      7.10681468	     15.57523292	     12.55194523	     -5.80210070	     -0.97804710	      3.70433116	      5.56154261	    -13.01171671	    -16.99207225	     18.76292764	     89.95437384	      0.00000000	      0.00000000	     -5.28225215	      9.97432986	      2.50786606	     14.26133820	     89.95437384	      0.00000000	      0.00000000
      2.08000000	     -0.40713811	      1.61502801	      4.74845643	      0.57323892	      0.96765551	      1.54969911	      4.65214905	     -1.61131350	    -19.87500376	    -15.50523556	     -0.27061741	      5.46539349	     -2.06151982	     -6.84107633	     18.37057782	      5.96225487	     17.65691664	    -34.85056387	     -0.60825709	      6.37464411	     15.17354495	     12.36097237	     -5.83338496	     -1.33294695	      4.16566990	      6.09301427	    -13.26717558	    -16.13102338	     19.09425525	     89.95437384	      0.00000000	      0.00000000	     -5.66973613	      9.98201195	      3.33677970	     13.90512814	     89.95437384	      0.00000000	      0.00000000
      2.09000000	     -0.63933120	      1.72107476	      4.62849006	      0.58008201	      0.96714140	      1.55025971	      4.38847941	     -1.64756625	    -19.85666487	    -15.37827450	     -0.26840152	      5.72062377	     -1.92735831	     -7.08232502	     18.95779318	      5.63165041	     18.24500488	    -32.56463182	     -0.56836004	      5.70839205	     14.63816164	     12.28219287	     -5.60918777	     -1.51134981	      4.60069037	      6.56951260	    -13.55810013	    -15.42110010	     19.42364339	     89.95437384	      0.00000000	      0.00000000	     -6.11612668	     10.01605563	      3.98283262	     13.70862466	     89.95437384	      0.00000000	      0.00000000
      2.10000000	     -0.33984488	      1.96861143	      4.39059464	      0.58737697	      0.96741386	      1.55064452	      3.49302689	     -1.85346416	    -19.94277368	    -15.25133199	     -0.26618596	      6.02691684	     -1.55888372	     -7.85798891	     18.75323000	      5.19499686	     19.12346019	    -30.03353391	     -0.52418405	      5.16779823	     14.14249461	     11.86590182	     -6.00845420	     -1.79513817	      4.97338694	      7.11823917	    -13.87349546	    -14.29420578	     19.87268819	     89.95437384	      0.00000000	      0.00000000	     -6.49749842	      9.96248722	      5.58214955	     13.42338218	     89.95437384	      0.00000000	      0.00000000
      2.11000000	     -0.59134697	      1.66228962	      4.53609985	      0.59460368	      0.96643689	      1.55088623	      3.21981932	     -1.44824733	    -20.25741871	    -15.14232907	     -0.26428350	      6.34716605	     -1.61439764	     -7.92631771	     19.64646311	      5.33272603	     19.58752682	    -28.35716654	     -0.49492592	      5.27193946	     13.90994612	     11.82677605	     -5.64831159	     -1.51046330	      5.17188812	      7.57135075	    -14.09167910	    -14.17422370	     20.13637649	     89.95437384	      0.00000000	      0.00000000	     -6.96846403	     10.06485366	      5.69270597	     13.12294775	     89.95437384	      0.00000000	      0.00000000
      2.12000000	     -0.81328185	      1.68063874	      4.50842530	      0.60142472	      0.96575486	      1.55115841	      2.99487663	     -1.38833257	    -20.02834791	    -15.13100643	     -0.26408588	      6.64472925	     -1.59988141	     -8.04721503	     20.07034948	      4.96522009	     19.51882414	    -25.82393257	     -0.45071265	      4.50330930	     12.55761735	     11.75841131	     -5.45462861	     -1.60503091	      5.47526568	      7.99252003	    -14.36121679	    -13.54663836	     20.60406225	     89.95437384	      0.00000000	      0.00000000	     -7.40053390	     10.13155908	      6.28554894	     12.97893844	     89.95437384	      0.00000000	      0.00000000
      2.13000000	     -0.31901558	      2.17070712	      4.36509716	      0.60893083	      0.96624170	      1.55100244	      1.87809594	     -1.90758329	    -20.18641311	    -15.12524783	     -0.26398537	      7.03192143	     -1.29286586	     -8.60186690	     19.52548890	      4.25211156	     20.43976723	    -23.28266569	     -0.40635917	      3.82089187	     11.37584008	     11.41187293	     -6.07983154	     -2.13929935	      5.68607239	      8.57355197	    -14.64540004	    -12.35029944	     20.97900434	     89.95437384	      0.00000000	      0.00000000	     -7.60599948	     10.06123779	      8.24854618	     12.46217840	     89.95437384	      0.00000000	      0.00000000
      2.14000000	     -0.29437130	      2.20544565	      4.41853466	      0.61602612	      0.96567916	      1.55082943	      1.36869073	     -1.95618726	    -20.49570022	    -15.20125337	     -0.26531192	      7.44109393	     -0.94813161	     -9.13785857	     19.79876833	      3.96499414	     20.61576846	    -21.22729454	     -0.37048618	      3.27866694	      9.96780665	     10.87989630	     -6.14041912	     -2.21963411	      5.72570289	      9.12783616	    -14.86149161	    -11.59664368	     21.35318510	     89.95437384	      0.00000000	      0.00000000	     -7.94050031	     10.06044392	      9.56870851	     12.04070507	     89.95437384	      0.00000000	      0.00000000
      2.15000000	     -0.51897433	      1.92811154	      4.51257109	      0.62276974	      0.96463329	      1.55061365	      1.16417140	     -1.62568407	    -20.60485747	    -15.19047436	     -0.26512379	      7.70195641	     -0.92004293	     -9.23865255	     20.55453399	      3.96289705	     20.37342852	    -19.56798069	     -0.34152569	      2.98138327	      9.02233051	     10.76452050	     -5.88106952	     -1.95765583	      6.00481270	      9.53216131	    -15.09712598	    -11.53678962	     21.68693271	     89.95437384	      0.00000000	      0.00000000	     -8.26844904	     10.13213334	      9.78157656	     11.84190730	     89.95437384	      0.00000000	      0.00000000
      2.16000000	     -0.24513122	      2.14240052	      4.58044016	      0.63041618	      0.96441497	      1.55006964	      0.23189426	     -1.88534201	    -21.08465066	    -14.99637354	     -0.26173609	      7.50590091	     -0.52457995	    -13.42515708	     20.39961763	      3.57946316	     21.04530267	    -17.42967237	     -0.30420517	      0.41456725	      7.01557568	      2.89767766	     -6.21411877	     -2.19915272	      5.92163314	     10.10780565	    -15.27341206	    -10.76591121	     22.02523413	     89.95437384	      0.00000000	      0.00000000	     -8.59845004	     10.11849308	     11.47484414	     11.43415566	     89.95437384	      0.00000000	      0.00000000
      2.17000000	     -0.30617002	      2.09122300	      4.68344047	      0.63741360	      0.96362905	      1.54964802	     -0.17835958	     -1.80439285	    -21.22910815	    -15.07377799	     -0.26308706	      7.69940920	     -0.62442203	    -13.40120010	     20.83696967	      3.35615659	     20.94564064	    -15.73359406	     -0.27460302	     -0.28730686	      5.53331300	      2.94691067	     -6.16235750	     -2.20010525	      6.12074470	     10.51285577	    -15.38170496	    -10.92758941	     22.35799897	     89.95437384	      0.00000000	      0.00000000	     -8.81243268	     10.23713432	     11.75218551	     11.08606405	     89.95437384	      0.00000000	      0.00000000
      2.18000000	     -0.26570371	      2.07624851	      4.71337737	      0.64470603	      0.96292651	      1.54926748	     -0.73891770	     -1.77334080	    -21.44547658	    -15.07213925	     -0.26305846	      8.02665899	     -0.51934176	    -13.44470048	     21.09552475	      3.15199615	     21.01896918	    -14.09396211	     -0.24598604	     -0.99857091	      4.03336866	      2.97912366	     -6.19547733	     -2.25374821	      6.28804653	     10.94421994	    -15.49350714	    -10.82150147	     22.67549221	     89.95437384	      0.00000000	      0.00000000	     -9.14781317	     10.36161616	     12.13412203	     10.88941800	     89.95437384	      0.00000000	      0.00000000
